<?xml version="1.0" encoding="UTF-8"?>
<svg width="78px" height="75px" viewBox="0 0 78 75" version="1.1" xmlns="http://www.w3.org/2000/svg" xmlns:xlink="http://www.w3.org/1999/xlink">
    <!-- Generator: Sketch 42 (36781) - http://www.bohemiancoding.com/sketch -->
    <title>svg1 copy</title>
    <desc>Created with Sketch.</desc>
    <defs></defs>
    <g id="Page-1" stroke="none" stroke-width="1" fill="none" fill-rule="evenodd">
        <g id="ram" fill-rule="nonzero" fill="#000000">
            <g id="ram" transform="translate(0.000000, 0.597956)">
                <path d="M13.75,0.33954375 C13.360113,0.38398125 12.985344,0.538978125 12.6875,0.778996875 L5.6875,6.40399687 C4.887055,7.05165937 4.797189,8.32943437 5.5,9.0700125 L12.5,16.4821219 C12.324915,16.5595284 12.141368,16.6377694 11.96875,16.7164969 C4.913203,19.9343906 0,24.6381844 0,30.3395438 L0,36.9020438 C0,57.1252313 17.428594,73.4645438 39,73.4645438 C60.571406,73.4645438 78,57.1252313 78,36.9020438 L78,30.3395438 C78,24.6381844 73.086797,19.9343906 66.03125,16.7164969 C58.975703,13.4986031 49.480187,11.5895437 39,11.5895437 C34.377205,11.5895437 29.957804,11.9802562 25.84375,12.6735281 C20.683987,6.84681375 15.53125,1.01337187 15.53125,1.01337187 C15.107983,0.5290875 14.413246,0.26626875 13.75,0.33954375 Z M39.84375,0.247746875 C39.2533653,0.294469796 38.7154553,0.584168637 38.375,1.0387625 C37.58245,2.060375 36.99536,3.22835937 37,4.5543875 C37.0046,5.89451562 37.640922,7.03942812 38.4375,7.98212187 C38.8501044,8.58033749 39.5886441,8.90770551 40.3436318,8.8270414 C41.0986196,8.74637729 41.7396506,8.27161374 41.9980988,7.60170178 C42.2565471,6.93178983 42.0877723,6.1824397 41.5625,5.66766875 C41.113186,5.1359375 41.000795,4.7562875 41,4.52509062 C40.999206,4.2983 41.134812,3.86788437 41.625,3.23602812 C42.0962129,2.64321413 42.1519058,1.84616578 41.7672102,1.2007882 C41.3825145,0.555410615 40.6292418,0.182176973 39.84375,0.247746875 L39.84375,0.247746875 Z M48.84375,0.247746875 C48.2533653,0.294469796 47.7154553,0.584168637 47.375,1.0387625 C46.58245,2.060375 45.99536,3.22835937 46,4.5543875 C46.0046,5.89451562 46.640922,7.03942812 47.4375,7.98212187 C47.8501044,8.58033749 48.5886441,8.90770551 49.3436318,8.8270414 C50.0986196,8.74637729 50.7396506,8.27161374 50.9980988,7.60170178 C51.2565471,6.93178983 51.0877723,6.1824397 50.5625,5.66766875 C50.113186,5.1359375 50.000795,4.7562875 50,4.52509062 C49.999206,4.2983 50.134812,3.86788437 50.625,3.23602812 C51.0962129,2.64321413 51.1519058,1.84616578 50.7672102,1.2007882 C50.3825145,0.555410615 49.6292418,0.182176973 48.84375,0.247746875 L48.84375,0.247746875 Z M57.84375,2.12274687 C57.2533653,2.1694698 56.7154553,2.45916864 56.375,2.9137625 C55.58245,3.935375 54.99536,5.10335937 55,6.4293875 C55.0046,7.76951562 55.640922,8.91442812 56.4375,9.85712187 C56.8501044,10.4553375 57.5886441,10.7827055 58.3436318,10.7020414 C59.0986196,10.6213773 59.7396506,10.1466137 59.9980988,9.47670178 C60.2565471,8.80678983 60.0877723,8.0574397 59.5625,7.54266875 C59.113186,7.0109375 59.000795,6.6312875 59,6.40009062 C58.999206,6.1733 59.134812,5.74288437 59.625,5.11102812 C60.0962129,4.51821413 60.1519058,3.72116578 59.7672102,3.0757882 C59.3825145,2.43041062 58.6292418,2.05717697 57.84375,2.12274687 Z M13.75,3.88055937 L31.84375,24.2418875 C30.086706,24.4372588 28.390655,24.6701394 26.78125,24.9743094 L9.84375,7.015325 L13.75,3.88055937 Z M39,14.3395437 C48.954353,14.3395437 57.945432,16.1959906 64.28125,19.0856375 C70.617068,21.9752844 74,25.7211313 74,29.3395438 L74,35.9020438 C74,54.1126063 58.424594,68.7145438 39,68.7145438 C19.575406,68.7145438 4,54.1126063 4,35.9020438 L4,29.3395438 C4,25.7211313 7.382932,21.9752844 13.71875,19.0856375 C14.219939,18.8570553 14.741447,18.621755 15.28125,18.4118094 L17.1875,20.4332937 C14.754132,21.3577597 12.697891,22.4507431 11.125,23.7731375 C9.395443,25.2272469 8.09375,27.1222156 8.09375,29.3395438 C8.09375,31.5568813 9.395443,33.4517938 11.125,34.90595 C12.854556,36.3600125 15.144213,37.5272469 17.90625,38.5094656 C23.430324,40.4738094 30.819326,41.6442313 39,41.6442313 C47.180674,41.6442313 54.569675,40.4738094 60.09375,38.5094656 C62.855787,37.5272469 65.145443,36.3600125 66.875,34.90595 C68.604557,33.4517938 69.90625,31.5568813 69.90625,29.3395438 C69.90625,27.1222156 68.604557,25.2272469 66.875,23.7731375 C65.145443,22.3190281 62.855787,21.1518125 60.09375,20.1696219 C54.569675,18.2052406 47.180674,17.0348562 39,17.0348562 C36.197258,17.0348562 33.506537,17.1881919 30.9375,17.4450125 C30.246214,16.6625516 29.559255,15.8869109 28.8125,15.0426687 C32.03751,14.6010697 35.445354,14.3395437 39,14.3395437 Z M39,21.0192312 C46.835584,21.0192312 53.934389,22.1809062 58.90625,23.9489187 C61.392181,24.832925 63.325847,25.8651687 64.53125,26.8786062 C65.118225,27.3720987 65.477363,27.8247622 65.71875,28.2262625 C59.950032,25.2872731 51.055176,23.7145437 41,23.7145437 C39.504417,23.7145437 38.031918,23.7591022 36.59375,23.8317312 C36.407605,23.6037012 35.432017,22.5099997 34.25,21.1657156 C35.796942,21.0716216 37.37557,21.0192312 39,21.0192312 Z M20.15625,23.5973562 L22.40625,25.9704031 C18.192826,27.1393934 14.753373,28.6714953 12.5,30.7750906 C12.085642,30.2213028 11.90625,29.7400916 11.90625,29.3395438 C11.90625,28.7091594 12.263347,27.8920344 13.46875,26.8786063 C14.674153,25.8651687 16.607819,24.832925 19.09375,23.9489187 C19.433583,23.8280731 19.792685,23.7106297 20.15625,23.5973562 Z M41,27.4645438 C50.993618,27.4645438 59.809258,29.406515 64.40625,31.8883719 C63.194817,32.8726006 61.318237,33.8724941 58.90625,34.7301688 C53.934389,36.4982 46.835584,37.6598563 39,37.6598563 C31.164417,37.6598563 24.06561,36.4982 19.09375,34.7301688 C17.760109,34.2559409 16.613576,33.7405213 15.625,33.2067313 C17.237994,31.8959516 20.07391,30.4986528 23.8125,29.4860281 C28.495544,28.2175906 34.497203,27.4645438 41,27.4645438 Z M51,30.2770438 C49.343146,30.2770438 48,31.1165103 48,32.1520438 C48,33.1875772 49.343146,34.0270438 51,34.0270438 C52.656854,34.0270438 54,33.1875772 54,32.1520438 C54,31.1165103 52.656854,30.2770438 51,30.2770438 Z M29,31.2145438 C27.343146,31.2145438 26,32.0540103 26,33.0895438 C26,34.1250772 27.343146,34.9645438 29,34.9645438 C30.656854,34.9645438 32,34.1250772 32,33.0895438 C32,32.0540103 30.656854,31.2145438 29,31.2145438 Z M40,32.1520438 C38.343146,32.1520438 37,32.9915103 37,34.0270438 C37,35.0625772 38.343146,35.9020438 40,35.9020438 C41.656854,35.9020438 43,35.0625772 43,34.0270438 C43,32.9915103 41.656854,32.1520438 40,32.1520438 Z" id="Shape"></path>
            </g>
        </g>
    </g>
</svg>
